<svg xmlns="http://www.w3.org/2000/svg" xmlns:xlink="http://www.w3.org/1999/xlink" width="500" zoomAndPan="magnify" viewBox="0 0 375 225" height="300" preserveAspectRatio="xMidYMid meet" version="1.0"><defs><g/><clipPath id="35638ac866"><path d="M 67.53125 1.230469 L 261.234375 1.230469 L 261.234375 183.414062 L 67.53125 183.414062 Z M 67.53125 1.230469 " clip-rule="nonzero"/></clipPath><clipPath id="ffdb1d32bc"><path d="M 59 19 L 194.234375 19 L 194.234375 182.414062 L 59 182.414062 Z M 59 19 " clip-rule="nonzero"/></clipPath><clipPath id="d0411bf5db"><path d="M 0.761719 0.230469 L 61 0.230469 L 61 83 L 0.761719 83 Z M 0.761719 0.230469 " clip-rule="nonzero"/></clipPath><clipPath id="41e88f9b05"><rect x="0" width="195" y="0" height="183"/></clipPath><clipPath id="bab59d2e43"><rect x="0" width="335" y="0" height="184"/></clipPath></defs><g transform="matrix(1, 0, 0, 1, 23, 20)"><g clip-path="url(#bab59d2e43)"><g clip-path="url(#35638ac866)"><g transform="matrix(1, 0, 0, 1, 67, 1)"><g clip-path="url(#41e88f9b05)"><g clip-path="url(#ffdb1d32bc)"><path fill="#d95b43" d="M 159.0625 47.34375 C 155.109375 47.445312 151.160156 47.847656 147.230469 48.371094 C 145.265625 48.636719 143.300781 48.933594 141.34375 49.289062 C 139.390625 49.640625 137.4375 50.035156 135.496094 50.46875 C 131.609375 51.335938 127.757812 52.394531 123.949219 53.625 C 122.042969 54.242188 120.15625 54.921875 118.285156 55.640625 C 116.410156 56.359375 114.554688 57.144531 112.71875 57.976562 C 110.882812 58.808594 109.070312 59.695312 107.289062 60.664062 C 105.507812 61.628906 103.746094 62.636719 102.03125 63.734375 C 100.316406 64.832031 98.628906 65.984375 96.992188 67.21875 C 95.363281 68.457031 93.78125 69.773438 92.25 71.15625 C 90.734375 72.550781 89.269531 74.015625 87.875 75.554688 C 86.492188 77.101562 85.183594 78.726562 83.953125 80.414062 C 82.730469 82.109375 81.621094 83.886719 80.585938 85.714844 C 79.5625 87.546875 78.65625 89.445312 77.828125 91.382812 L 77.027344 93.261719 L 78.449219 94.878906 L 78.929688 95.425781 L 79.382812 95.917969 C 79.683594 96.246094 79.984375 96.5625 80.289062 96.875 C 80.894531 97.503906 81.515625 98.105469 82.140625 98.707031 C 83.394531 99.898438 84.691406 101.042969 86.027344 102.136719 C 88.703125 104.328125 91.539062 106.34375 94.535156 108.136719 C 96.035156 109.03125 97.570312 109.878906 99.160156 110.644531 C 100.738281 111.425781 102.367188 112.125 104.03125 112.75 L 105.285156 113.207031 C 105.707031 113.351562 106.136719 113.480469 106.558594 113.621094 C 107.40625 113.90625 108.277344 114.121094 109.140625 114.367188 C 110.886719 114.796875 112.652344 115.175781 114.453125 115.410156 C 116.246094 115.675781 118.070312 115.777344 119.894531 115.828125 C 120.351562 115.832031 120.808594 115.816406 121.265625 115.8125 C 121.726562 115.800781 122.183594 115.808594 122.640625 115.769531 C 123.550781 115.695312 124.46875 115.667969 125.378906 115.53125 C 129.019531 115.113281 132.605469 114.1875 136.003906 112.875 C 139.40625 111.558594 142.617188 109.851562 145.605469 107.882812 C 148.59375 105.910156 151.371094 103.691406 153.953125 101.300781 C 156.542969 98.914062 158.886719 96.335938 161.136719 93.699219 C 162.222656 92.355469 163.339844 91.027344 164.351562 89.636719 C 164.863281 88.949219 165.398438 88.269531 165.890625 87.570312 L 167.367188 85.464844 C 167.613281 85.109375 167.863281 84.761719 168.101562 84.40625 L 170.199219 81.1875 C 171.097656 79.738281 171.96875 78.277344 172.839844 76.816406 C 173.664062 75.335938 174.519531 73.867188 175.320312 72.375 C 176.101562 70.875 176.917969 69.386719 177.667969 67.878906 C 178.410156 66.363281 179.179688 64.859375 179.894531 63.332031 C 180.597656 61.804688 181.316406 60.28125 182.007812 58.746094 L 184.011719 54.121094 L 185.898438 49.460938 C 186.535156 47.90625 187.097656 46.335938 187.699219 44.773438 C 187.992188 43.988281 188.300781 43.210938 188.582031 42.421875 L 189.421875 40.0625 C 190.574219 36.921875 191.601562 33.75 192.667969 30.585938 L 194.476562 25.222656 L 188.992188 23.875 L 187.871094 23.59375 L 186.8125 23.351562 C 186.113281 23.195312 185.417969 23.046875 184.722656 22.90625 C 183.332031 22.621094 181.941406 22.371094 180.554688 22.136719 C 177.773438 21.667969 174.992188 21.28125 172.203125 20.960938 C 166.621094 20.320312 161.007812 19.96875 155.378906 19.921875 C 149.746094 19.867188 144.097656 20.191406 138.472656 20.835938 C 135.65625 21.175781 132.851562 21.605469 130.054688 22.128906 C 127.261719 22.671875 124.480469 23.3125 121.722656 24.0625 C 118.96875 24.839844 116.242188 25.730469 113.550781 26.722656 C 110.867188 27.753906 108.214844 28.878906 105.628906 30.152344 C 100.457031 32.710938 95.503906 35.789062 91.015625 39.464844 C 86.492188 43.09375 82.449219 47.304688 78.902344 51.863281 C 78.441406 52.417969 78.042969 53.023438 77.613281 53.601562 C 77.199219 54.191406 76.757812 54.765625 76.363281 55.367188 L 75.179688 57.171875 L 74.59375 58.078125 L 74.042969 59.003906 L 72.945312 60.859375 C 72.589844 61.480469 72.261719 62.121094 71.921875 62.75 C 71.589844 63.386719 71.234375 64.007812 70.925781 64.652344 L 70 66.585938 L 69.535156 67.550781 C 69.386719 67.875 69.253906 68.207031 69.109375 68.53125 L 68.269531 70.496094 C 67.976562 71.148438 67.742188 71.816406 67.484375 72.480469 L 66.734375 74.472656 C 66.261719 75.8125 65.839844 77.164062 65.390625 78.507812 L 64.222656 82.578125 L 63.222656 86.683594 L 62.378906 90.808594 L 62.351562 90.9375 L 62.339844 91 C 62.425781 90.632812 62.355469 90.933594 62.371094 90.871094 L 62.300781 91.152344 L 62.183594 91.683594 L 61.957031 92.722656 C 61.816406 93.414062 61.675781 94.101562 61.546875 94.789062 C 61.292969 96.164062 61.058594 97.539062 60.847656 98.917969 C 60 104.417969 59.441406 109.949219 59.210938 115.507812 C 58.992188 121.0625 59.09375 126.636719 59.625 132.1875 C 60.179688 137.734375 61.152344 143.265625 62.753906 148.632812 C 64.371094 153.988281 66.597656 159.203125 69.671875 163.902344 C 71.207031 166.25 72.929688 168.46875 74.859375 170.492188 C 76.789062 172.515625 78.90625 174.347656 81.171875 175.945312 C 85.722656 179.125 90.832031 181.363281 96.105469 182.703125 L 94.210938 181.949219 C 93.578125 181.699219 92.972656 181.390625 92.351562 181.117188 C 91.726562 180.851562 91.128906 180.535156 90.527344 180.230469 L 89.625 179.769531 L 88.746094 179.265625 C 86.402344 177.933594 84.191406 176.394531 82.164062 174.660156 C 78.078125 171.21875 74.753906 166.996094 72.230469 162.367188 C 69.71875 157.730469 67.953125 152.714844 66.804688 147.566406 C 65.644531 142.414062 65.050781 137.132812 64.871094 131.835938 C 64.671875 126.535156 64.875 121.214844 65.390625 115.921875 C 65.894531 110.628906 66.679688 105.355469 67.753906 100.15625 C 68.019531 98.855469 68.308594 97.5625 68.613281 96.28125 C 68.761719 95.636719 68.917969 95 69.078125 94.363281 L 69.613281 92.316406 L 70.570312 88.488281 L 71.664062 84.710938 L 72.902344 80.988281 C 73.367188 79.773438 73.808594 78.546875 74.292969 77.339844 L 75.046875 75.542969 C 75.300781 74.949219 75.539062 74.34375 75.824219 73.761719 L 76.652344 72.003906 C 76.789062 71.714844 76.921875 71.417969 77.066406 71.128906 L 77.515625 70.273438 C 79.882812 65.6875 82.660156 61.34375 85.902344 57.410156 C 89.144531 53.480469 92.777344 49.890625 96.824219 46.824219 C 97.335938 46.449219 97.820312 46.039062 98.347656 45.683594 L 99.910156 44.59375 C 100.425781 44.222656 100.972656 43.898438 101.503906 43.550781 C 102.039062 43.207031 102.566406 42.859375 103.121094 42.542969 L 104.761719 41.570312 L 106.4375 40.65625 C 106.71875 40.507812 106.996094 40.351562 107.277344 40.207031 L 108.136719 39.78125 C 108.710938 39.503906 109.273438 39.207031 109.855469 38.941406 C 112.167969 37.859375 114.542969 36.910156 116.953125 36.035156 C 119.378906 35.195312 121.835938 34.441406 124.332031 33.792969 C 126.832031 33.164062 129.355469 32.597656 131.90625 32.140625 C 134.460938 31.695312 137.03125 31.332031 139.621094 31.046875 C 144.800781 30.507812 150.03125 30.296875 155.273438 30.371094 C 160.515625 30.429688 165.769531 30.78125 170.988281 31.398438 C 173.597656 31.710938 176.199219 32.082031 178.78125 32.527344 C 180.070312 32.75 181.355469 32.996094 182.628906 33.25 C 183.269531 33.375 183.898438 33.507812 184.527344 33.644531 L 185.457031 33.855469 L 186.316406 34.0625 L 182.640625 27.347656 C 181.617188 30.421875 180.628906 33.507812 179.53125 36.546875 L 178.726562 38.835938 C 178.460938 39.597656 178.164062 40.347656 177.882812 41.105469 C 177.308594 42.613281 176.769531 44.136719 176.167969 45.632812 L 174.371094 50.117188 L 172.496094 54.5625 C 171.855469 56.035156 171.1875 57.492188 170.535156 58.960938 C 169.871094 60.417969 169.160156 61.851562 168.472656 63.296875 C 167.777344 64.738281 167.027344 66.144531 166.308594 67.570312 C 165.570312 68.984375 164.785156 70.363281 164.027344 71.765625 C 163.230469 73.136719 162.429688 74.507812 161.617188 75.867188 L 160.359375 77.875 L 159.734375 78.882812 C 159.519531 79.210938 159.296875 79.535156 159.078125 79.863281 L 157.761719 81.824219 C 157.324219 82.476562 156.851562 83.097656 156.394531 83.734375 C 155.496094 85.023438 154.515625 86.230469 153.558594 87.464844 C 151.589844 89.863281 149.546875 92.203125 147.339844 94.316406 C 145.132812 96.429688 142.820312 98.402344 140.363281 100.117188 C 137.910156 101.832031 135.320312 103.296875 132.613281 104.425781 C 129.910156 105.5625 127.09375 106.347656 124.21875 106.792969 C 123.503906 106.929688 122.777344 106.972656 122.054688 107.058594 C 121.691406 107.109375 121.328125 107.109375 120.964844 107.132812 C 120.597656 107.148438 120.234375 107.171875 119.871094 107.183594 C 118.410156 107.191406 116.941406 107.167969 115.472656 106.996094 C 114.007812 106.863281 112.542969 106.597656 111.085938 106.296875 C 110.359375 106.117188 109.628906 105.964844 108.910156 105.746094 C 108.550781 105.640625 108.183594 105.546875 107.824219 105.4375 L 106.75 105.089844 C 106.390625 104.976562 106.035156 104.84375 105.679688 104.714844 C 105.324219 104.585938 104.964844 104.464844 104.613281 104.324219 C 103.90625 104.042969 103.195312 103.773438 102.5 103.453125 C 101.097656 102.851562 99.722656 102.164062 98.367188 101.433594 C 95.65625 99.964844 93.039062 98.269531 90.542969 96.394531 C 89.296875 95.457031 88.078125 94.480469 86.894531 93.46875 C 86.308594 92.957031 85.722656 92.441406 85.160156 91.914062 C 84.878906 91.652344 84.601562 91.386719 84.328125 91.121094 L 83.925781 90.722656 L 83.574219 90.363281 L 84.195312 93.859375 C 86.6875 86.914062 90.828125 80.554688 96.109375 75.164062 C 97.4375 73.820312 98.828125 72.53125 100.265625 71.289062 C 101.703125 70.046875 103.210938 68.875 104.75 67.742188 C 106.292969 66.605469 107.894531 65.546875 109.523438 64.523438 C 111.15625 63.5 112.824219 62.535156 114.527344 61.609375 C 117.921875 59.753906 121.453125 58.121094 125.050781 56.625 C 128.652344 55.132812 132.339844 53.824219 136.078125 52.640625 C 137.949219 52.050781 139.832031 51.5 141.726562 50.984375 C 143.621094 50.472656 145.527344 49.980469 147.445312 49.535156 C 149.359375 49.089844 151.289062 48.679688 153.226562 48.3125 C 155.164062 47.957031 157.105469 47.597656 159.0625 47.34375 " fill-opacity="1" fill-rule="nonzero"/></g><g clip-path="url(#d0411bf5db)"><path fill="#7a9a3e" d="M 19.824219 26.171875 C 20.753906 27.015625 21.640625 27.898438 22.523438 28.78125 C 23.398438 29.671875 24.269531 30.5625 25.109375 31.480469 L 26.367188 32.859375 L 27.59375 34.253906 L 28.792969 35.671875 L 29.96875 37.105469 C 30.734375 38.070312 31.492188 39.042969 32.214844 40.03125 C 32.589844 40.515625 32.933594 41.023438 33.292969 41.519531 C 33.65625 42.011719 34 42.519531 34.335938 43.027344 C 35.03125 44.03125 35.660156 45.074219 36.304688 46.097656 L 37.230469 47.65625 C 37.53125 48.183594 37.8125 48.714844 38.101562 49.242188 C 38.402344 49.765625 38.65625 50.308594 38.921875 50.84375 C 39.191406 51.375 39.457031 51.914062 39.695312 52.457031 C 39.9375 53 40.199219 53.535156 40.421875 54.082031 L 41.082031 55.730469 C 41.296875 56.277344 41.46875 56.839844 41.667969 57.390625 C 41.757812 57.667969 41.863281 57.941406 41.945312 58.222656 L 42.183594 59.0625 C 42.53125 60.171875 42.769531 61.300781 43.035156 62.417969 C 43.21875 63.550781 43.445312 64.671875 43.523438 65.800781 C 43.582031 66.363281 43.652344 66.921875 43.648438 67.484375 C 43.660156 68.046875 43.695312 68.605469 43.703125 69.164062 L 43.644531 70.832031 L 43.632812 71.246094 C 43.621094 71.386719 43.601562 71.523438 43.585938 71.660156 L 43.496094 72.484375 C 43.417969 73.589844 43.140625 74.664062 42.957031 75.742188 L 45.699219 72.664062 L 45.117188 72.785156 L 44.445312 72.914062 C 43.992188 72.996094 43.527344 73.070312 43.0625 73.140625 C 42.132812 73.277344 41.195312 73.382812 40.253906 73.457031 C 38.371094 73.597656 36.488281 73.613281 34.648438 73.480469 C 32.808594 73.34375 31 73.09375 29.277344 72.664062 C 27.550781 72.234375 25.902344 71.652344 24.386719 70.882812 C 23.621094 70.511719 22.902344 70.074219 22.191406 69.632812 C 21.5 69.164062 20.824219 68.679688 20.199219 68.132812 C 18.941406 67.050781 17.820312 65.8125 16.847656 64.433594 C 15.882812 63.050781 15.039062 61.542969 14.335938 59.925781 C 13.636719 58.308594 13.070312 56.59375 12.613281 54.820312 C 12.152344 53.042969 11.859375 51.191406 11.585938 49.324219 C 11.476562 48.378906 11.347656 47.441406 11.289062 46.480469 C 11.253906 46 11.203125 45.527344 11.179688 45.042969 L 11.113281 43.597656 C 11.085938 43.117188 11.078125 42.632812 11.074219 42.144531 L 11.058594 40.683594 C 11.0625 39.707031 11.085938 38.726562 11.109375 37.746094 C 11.167969 36.761719 11.183594 35.777344 11.246094 34.792969 C 11.320312 33.804688 11.367188 32.816406 11.460938 31.824219 C 11.5625 30.835938 11.640625 29.84375 11.753906 28.851562 L 12.121094 25.871094 L 12.550781 22.890625 L 13.027344 19.90625 C 13.183594 18.910156 13.382812 17.917969 13.554688 16.921875 C 13.726562 15.929688 13.929688 14.933594 14.132812 13.941406 C 14.511719 11.949219 14.984375 9.972656 15.40625 7.984375 L 9.054688 11.605469 L 9.328125 11.683594 L 9.648438 11.78125 L 10.316406 11.996094 C 10.761719 12.144531 11.214844 12.296875 11.667969 12.457031 C 12.570312 12.773438 13.480469 13.113281 14.382812 13.464844 C 16.1875 14.171875 17.976562 14.9375 19.742188 15.761719 C 23.285156 17.378906 26.738281 19.203125 30.035156 21.253906 C 33.34375 23.285156 36.5 25.539062 39.425781 28.039062 C 40.898438 29.277344 42.3125 30.582031 43.65625 31.949219 C 44.996094 33.320312 46.253906 34.761719 47.449219 36.253906 C 48.636719 37.75 49.753906 39.308594 50.746094 40.9375 C 51.734375 42.570312 52.652344 44.253906 53.441406 46 C 54.246094 47.742188 54.890625 49.558594 55.460938 51.40625 C 55.757812 52.328125 55.972656 53.273438 56.214844 54.214844 C 56.40625 55.167969 56.617188 56.121094 56.757812 57.089844 C 56.9375 58.050781 57.027344 59.027344 57.148438 60.007812 C 57.214844 60.988281 57.320312 61.972656 57.328125 62.964844 C 57.433594 64.949219 57.347656 66.945312 57.222656 68.949219 C 57.132812 69.949219 57.070312 70.957031 56.921875 71.957031 L 56.730469 73.464844 L 56.488281 74.96875 C 56.410156 75.472656 56.328125 75.972656 56.21875 76.472656 L 55.925781 77.976562 C 55.71875 78.976562 55.480469 79.972656 55.257812 80.980469 C 55.683594 80.046875 56.144531 79.125 56.542969 78.171875 C 56.929688 77.214844 57.355469 76.265625 57.6875 75.289062 L 58.214844 73.820312 C 58.378906 73.328125 58.527344 72.832031 58.679688 72.332031 C 59.003906 71.339844 59.246094 70.328125 59.519531 69.3125 C 59.996094 67.277344 60.398438 65.207031 60.628906 63.101562 C 60.773438 62.046875 60.8125 60.988281 60.890625 59.925781 C 60.914062 58.859375 60.96875 57.792969 60.925781 56.722656 C 60.929688 55.648438 60.820312 54.578125 60.746094 53.503906 C 60.621094 52.433594 60.515625 51.359375 60.320312 50.292969 C 59.96875 48.160156 59.46875 46.039062 58.789062 43.96875 C 58.117188 41.898438 57.320312 39.855469 56.371094 37.890625 C 55.425781 35.917969 54.335938 34.019531 53.15625 32.183594 C 50.792969 28.507812 47.964844 25.164062 44.902344 22.101562 C 41.816406 19.054688 38.472656 16.304688 34.964844 13.8125 C 31.441406 11.34375 27.761719 9.132812 23.960938 7.148438 C 22.054688 6.167969 20.117188 5.25 18.148438 4.386719 C 17.160156 3.957031 16.167969 3.542969 15.15625 3.140625 C 14.652344 2.941406 14.144531 2.746094 13.628906 2.554688 L 12.84375 2.265625 L 12.4375 2.125 L 11.980469 1.972656 L 6.960938 0.292969 L 5.628906 5.59375 C 5.109375 7.660156 4.589844 9.71875 4.128906 11.804688 C 3.894531 12.84375 3.65625 13.882812 3.449219 14.933594 C 3.238281 15.984375 3.007812 17.023438 2.816406 18.082031 L 2.242188 21.246094 L 1.753906 24.4375 L 1.335938 27.648438 C 1.203125 28.722656 1.105469 29.804688 0.992188 30.882812 C 0.882812 31.960938 0.816406 33.054688 0.730469 34.136719 C 0.65625 35.226562 0.609375 36.324219 0.566406 37.414062 C 0.546875 38.515625 0.53125 39.613281 0.53125 40.71875 L 0.566406 42.378906 C 0.574219 42.929688 0.585938 43.484375 0.625 44.042969 L 0.710938 45.710938 C 0.742188 46.265625 0.804688 46.828125 0.851562 47.386719 C 0.933594 48.5 1.089844 49.625 1.230469 50.746094 C 1.558594 52.992188 1.996094 55.242188 2.625 57.484375 C 3.257812 59.722656 4.042969 61.953125 5.050781 64.128906 C 6.058594 66.304688 7.292969 68.429688 8.800781 70.390625 C 10.304688 72.351562 12.066406 74.15625 14.03125 75.707031 C 15.988281 77.261719 18.152344 78.554688 20.414062 79.523438 C 22.671875 80.507812 25.015625 81.1875 27.355469 81.632812 C 28.527344 81.855469 29.699219 82.023438 30.867188 82.125 C 32.035156 82.238281 33.199219 82.289062 34.359375 82.292969 C 36.675781 82.296875 38.960938 82.117188 41.210938 81.789062 C 42.335938 81.621094 43.453125 81.417969 44.570312 81.171875 C 45.128906 81.046875 45.683594 80.921875 46.242188 80.765625 L 47.085938 80.53125 L 47.519531 80.402344 L 48.011719 80.242188 L 50.535156 79.441406 L 50.753906 77.164062 C 50.886719 75.769531 51.097656 74.386719 51.085938 72.988281 L 51.113281 71.941406 L 51.121094 71.421875 L 51.097656 70.902344 L 50.988281 68.824219 C 50.925781 68.136719 50.828125 67.449219 50.738281 66.769531 C 50.664062 66.082031 50.519531 65.410156 50.382812 64.742188 C 50.144531 63.390625 49.75 62.085938 49.394531 60.78125 C 48.957031 59.5 48.554688 58.210938 48.015625 56.988281 L 47.632812 56.0625 C 47.503906 55.753906 47.351562 55.457031 47.210938 55.15625 C 46.921875 54.558594 46.652344 53.949219 46.34375 53.367188 L 45.402344 51.625 C 45.085938 51.046875 44.734375 50.492188 44.398438 49.929688 C 44.074219 49.359375 43.707031 48.816406 43.34375 48.277344 C 42.976562 47.734375 42.625 47.183594 42.234375 46.664062 C 41.851562 46.140625 41.476562 45.609375 41.089844 45.09375 L 39.894531 43.566406 C 39.078125 42.566406 38.246094 41.582031 37.378906 40.636719 C 36.949219 40.160156 36.519531 39.683594 36.070312 39.226562 C 35.628906 38.765625 35.195312 38.296875 34.738281 37.851562 C 33.832031 36.949219 32.902344 36.078125 31.964844 35.21875 L 30.542969 33.953125 L 29.085938 32.726562 C 28.101562 31.925781 27.117188 31.132812 26.101562 30.378906 C 25.089844 29.625 24.066406 28.882812 23.019531 28.179688 C 21.976562 27.476562 20.914062 26.796875 19.824219 26.171875 " fill-opacity="1" fill-rule="nonzero"/></g></g></g></g><g fill="#7a9a3e" fill-opacity="1"><g transform="translate(0.690155, 165.343525)"><g><path d="M 46.046875 0 L 28.6875 0 L 28.6875 -7.640625 L 32.171875 -7.640625 L 30.5625 -12.0625 L 15.75 -12.0625 L 13.9375 -7.640625 L 18.03125 -7.640625 L 18.03125 0 L 0.875 0 L 0.875 -7.640625 L 4.828125 -7.640625 L 17.296875 -35.921875 L 11.265625 -35.921875 L 11.265625 -43.5625 L 26.203125 -43.5625 L 41.890625 -7.640625 L 46.046875 -7.640625 Z M 28.140625 -18.5 L 23.59375 -30.765625 L 23.1875 -30.765625 L 18.296875 -18.5 Z M 28.140625 -18.5 "/></g></g></g><g fill="#7a9a3e" fill-opacity="1"><g transform="translate(51.282617, 165.343525)"><g><path d="M 37.1875 -23.65625 L 33.171875 -23.65625 L 33.171875 -1.546875 C 33.171875 3.285156 31.804688 7.226562 29.078125 10.28125 C 26.359375 13.34375 22.160156 14.875 16.484375 14.875 C 13.359375 14.875 10.363281 14.238281 7.5 12.96875 C 4.644531 11.695312 2.566406 9.316406 1.265625 5.828125 L 7.90625 2.078125 C 10.050781 6.054688 12.929688 8.046875 16.546875 8.046875 C 18.867188 8.046875 20.78125 7.207031 22.28125 5.53125 C 23.78125 3.851562 24.53125 1.492188 24.53125 -1.546875 L 24.53125 -5.5 C 23.726562 -3.976562 22.539062 -2.679688 20.96875 -1.609375 C 19.40625 -0.535156 17.285156 0 14.609375 0 C 11.078125 0 7.992188 -1.226562 5.359375 -3.6875 C 2.722656 -6.144531 1.40625 -9.765625 1.40625 -14.546875 C 1.40625 -19.054688 2.609375 -22.894531 5.015625 -26.0625 C 7.429688 -29.238281 10.765625 -30.828125 15.015625 -30.828125 C 17.378906 -30.828125 19.34375 -30.332031 20.90625 -29.34375 C 22.46875 -28.363281 23.675781 -27.09375 24.53125 -25.53125 L 24.53125 -30.21875 L 37.1875 -30.21875 Z M 24.53125 -15.28125 L 24.53125 -16.015625 C 24.53125 -18.515625 23.890625 -20.46875 22.609375 -21.875 C 21.335938 -23.28125 19.722656 -23.984375 17.765625 -23.984375 C 15.835938 -23.984375 14.238281 -23.269531 12.96875 -21.84375 C 11.695312 -20.414062 11.0625 -18.160156 11.0625 -15.078125 C 11.0625 -12.171875 11.628906 -10.066406 12.765625 -8.765625 C 13.898438 -7.472656 15.382812 -6.828125 17.21875 -6.828125 C 19.59375 -6.828125 21.40625 -7.675781 22.65625 -9.375 C 23.90625 -11.070312 24.53125 -13.039062 24.53125 -15.28125 Z M 24.53125 -15.28125 "/></g></g></g><g fill="#7a9a3e" fill-opacity="1"><g transform="translate(94.705034, 165.343525)"><g><path d="M 21.046875 -30.625 C 21.890625 -30.625 22.835938 -30.5 23.890625 -30.25 C 24.941406 -30.007812 25.976562 -29.578125 27 -28.953125 L 28.34375 -18.359375 L 21.78125 -17.625 L 20.640625 -22.78125 C 19.742188 -23.320312 18.960938 -23.59375 18.296875 -23.59375 C 17.316406 -23.59375 16.457031 -23.210938 15.71875 -22.453125 C 14.976562 -21.691406 14.609375 -20.570312 14.609375 -19.09375 L 14.609375 -6.5 L 19.96875 -6.5 L 19.96875 0 L 1.9375 0 L 1.9375 -6.5 L 5.96875 -6.5 L 5.96875 -23.65625 L 1.609375 -23.65625 L 1.609375 -30.21875 L 13.9375 -30.21875 L 13.9375 -24.453125 C 14.425781 -26.203125 15.21875 -27.664062 16.3125 -28.84375 C 17.40625 -30.03125 18.984375 -30.625 21.046875 -30.625 Z M 21.046875 -30.625 "/></g></g></g><g fill="#7a9a3e" fill-opacity="1"><g transform="translate(129.617189, 165.343525)"><g><path d="M 33.703125 -15.078125 C 33.703125 -10.296875 32.140625 -6.472656 29.015625 -3.609375 C 25.890625 -0.753906 21.914062 0.671875 17.09375 0.671875 C 12.445312 0.671875 8.660156 -0.675781 5.734375 -3.375 C 2.804688 -6.082031 1.34375 -9.875 1.34375 -14.75 C 1.34375 -19.164062 2.679688 -22.957031 5.359375 -26.125 C 8.035156 -29.300781 12.101562 -30.890625 17.5625 -30.890625 C 23.007812 -30.890625 27.0625 -29.3125 29.71875 -26.15625 C 32.375 -23.007812 33.703125 -19.316406 33.703125 -15.078125 Z M 24.796875 -15.34375 C 24.796875 -18.425781 24.078125 -20.679688 22.640625 -22.109375 C 21.210938 -23.546875 19.472656 -24.265625 17.421875 -24.265625 C 15.191406 -24.265625 13.4375 -23.46875 12.15625 -21.875 C 10.882812 -20.289062 10.25 -18.070312 10.25 -15.21875 C 10.25 -12.625 10.84375 -10.429688 12.03125 -8.640625 C 13.21875 -6.859375 14.992188 -5.96875 17.359375 -5.96875 C 19.585938 -5.96875 21.382812 -6.800781 22.75 -8.46875 C 24.113281 -10.144531 24.796875 -12.4375 24.796875 -15.34375 Z M 24.796875 -15.34375 "/></g></g></g><g fill="#d95b43" fill-opacity="1"><g transform="translate(169.703903, 165.343525)"><g><path d="M 35.25 -13.203125 C 35.25 -8.691406 33.726562 -5.25 30.6875 -2.875 C 27.65625 -0.507812 23.476562 0.671875 18.15625 0.671875 C 15.207031 0.671875 12.269531 0.289062 9.34375 -0.46875 C 6.414062 -1.226562 4.101562 -2.367188 2.40625 -3.890625 L 3.75 -14.671875 L 10.921875 -14 L 10.859375 -8.71875 C 12.378906 -7.90625 13.675781 -7.421875 14.75 -7.265625 C 15.820312 -7.109375 16.734375 -7.03125 17.484375 -7.03125 C 19.859375 -7.03125 21.800781 -7.332031 23.3125 -7.9375 C 24.832031 -8.539062 25.59375 -9.9375 25.59375 -12.125 C 25.59375 -14.539062 24.695312 -16.160156 22.90625 -16.984375 C 21.125 -17.816406 19.03125 -18.453125 16.625 -18.890625 C 14.519531 -19.253906 12.40625 -19.78125 10.28125 -20.46875 C 8.164062 -21.164062 6.390625 -22.304688 4.953125 -23.890625 C 3.523438 -25.472656 2.8125 -27.832031 2.8125 -30.96875 C 2.8125 -35.832031 4.460938 -39.257812 7.765625 -41.25 C 11.078125 -43.238281 14.695312 -44.234375 18.625 -44.234375 C 21.488281 -44.234375 24.210938 -43.796875 26.796875 -42.921875 C 29.390625 -42.046875 31.378906 -40.875 32.765625 -39.40625 L 33.171875 -29.953125 L 26 -29.28125 L 25.40625 -34.375 C 24.28125 -35.132812 23.148438 -35.648438 22.015625 -35.921875 C 20.878906 -36.191406 19.773438 -36.328125 18.703125 -36.328125 C 16.910156 -36.328125 15.421875 -36.015625 14.234375 -35.390625 C 13.054688 -34.765625 12.46875 -33.664062 12.46875 -32.09375 C 12.46875 -30.269531 13.222656 -29 14.734375 -28.28125 C 16.253906 -27.5625 18 -26.976562 19.96875 -26.53125 C 21.757812 -26.175781 23.847656 -25.675781 26.234375 -25.03125 C 28.628906 -24.382812 30.726562 -23.175781 32.53125 -21.40625 C 34.34375 -19.644531 35.25 -16.910156 35.25 -13.203125 Z M 35.25 -13.203125 "/></g></g></g><g fill="#d95b43" fill-opacity="1"><g transform="translate(212.389199, 165.343525)"><g><path d="M 30.484375 -11.265625 C 30.171875 -8.492188 28.976562 -5.8125 26.90625 -3.21875 C 24.832031 -0.625 21.359375 0.671875 16.484375 0.671875 C 12.109375 0.671875 8.5 -0.597656 5.65625 -3.140625 C 2.820312 -5.691406 1.40625 -9.515625 1.40625 -14.609375 C 1.40625 -19.972656 2.945312 -24.015625 6.03125 -26.734375 C 9.113281 -29.460938 12.84375 -30.828125 17.21875 -30.828125 C 18.875 -30.828125 20.648438 -30.613281 22.546875 -30.1875 C 24.453125 -29.757812 26.316406 -29.054688 28.140625 -28.078125 L 29.484375 -18.890625 L 22.578125 -18.15625 L 21.578125 -23.125 C 19.835938 -23.695312 18.316406 -23.984375 17.015625 -23.984375 C 15.191406 -23.984375 13.628906 -23.28125 12.328125 -21.875 C 11.035156 -20.46875 10.390625 -18.179688 10.390625 -15.015625 C 10.390625 -9.117188 12.691406 -6.171875 17.296875 -6.171875 C 20.691406 -6.171875 22.675781 -8.3125 23.25 -12.59375 Z M 30.484375 -11.265625 "/></g></g></g><g fill="#d95b43" fill-opacity="1"><g transform="translate(249.311654, 165.343525)"><g><path d="M 4.5625 -28.078125 C 7.195312 -29.148438 9.394531 -29.875 11.15625 -30.25 C 12.925781 -30.632812 15.035156 -30.828125 17.484375 -30.828125 C 20.753906 -30.828125 23.570312 -29.976562 25.9375 -28.28125 C 28.300781 -26.582031 29.484375 -24.015625 29.484375 -20.578125 L 29.484375 -7.4375 C 29.484375 -5.875 30.175781 -5.09375 31.5625 -5.09375 C 31.96875 -5.09375 32.394531 -5.160156 32.84375 -5.296875 L 32.90625 -0.734375 C 31.164062 0.203125 29.351562 0.671875 27.46875 0.671875 C 23.5 0.671875 21.289062 -1.316406 20.84375 -5.296875 L 20.84375 -5.359375 C 19.988281 -3.835938 18.769531 -2.453125 17.1875 -1.203125 C 15.601562 0.046875 13.582031 0.671875 11.125 0.671875 C 8.9375 0.671875 6.835938 0.0234375 4.828125 -1.265625 C 2.816406 -2.566406 1.8125 -4.800781 1.8125 -7.96875 C 1.8125 -11.675781 3.296875 -14.132812 6.265625 -15.34375 C 9.234375 -16.550781 12.4375 -17.15625 15.875 -17.15625 C 17.800781 -17.15625 19.457031 -17.066406 20.84375 -16.890625 L 20.84375 -17.890625 C 20.84375 -19.453125 20.628906 -20.96875 20.203125 -22.4375 C 19.773438 -23.914062 18.332031 -24.65625 15.875 -24.65625 C 14.988281 -24.65625 14.175781 -24.597656 13.4375 -24.484375 C 12.695312 -24.378906 11.972656 -24.148438 11.265625 -23.796875 L 10.125 -19.5 L 3.21875 -20.234375 Z M 20.84375 -12.328125 L 20.84375 -12.734375 C 20.125 -12.816406 19.394531 -12.90625 18.65625 -13 C 17.925781 -13.09375 17.203125 -13.140625 16.484375 -13.140625 C 14.960938 -13.140625 13.617188 -12.859375 12.453125 -12.296875 C 11.296875 -11.734375 10.71875 -10.628906 10.71875 -8.984375 C 10.71875 -7.992188 10.984375 -7.164062 11.515625 -6.5 C 12.054688 -5.832031 12.976562 -5.5 14.28125 -5.5 C 15.789062 -5.5 17.203125 -6.046875 18.515625 -7.140625 C 19.835938 -8.234375 20.613281 -9.960938 20.84375 -12.328125 Z M 20.84375 -12.328125 "/></g></g></g><g fill="#d95b43" fill-opacity="1"><g transform="translate(288.579448, 165.343525)"><g><path d="M 38.9375 0 L 22.25 0 L 22.25 -6.5 L 26.265625 -6.5 L 26.265625 -17.015625 C 26.265625 -19.609375 25.828125 -21.460938 24.953125 -22.578125 C 24.085938 -23.703125 22.804688 -24.265625 21.109375 -24.265625 C 19.054688 -24.265625 17.46875 -23.625 16.34375 -22.34375 C 15.226562 -21.070312 14.648438 -19.410156 14.609375 -17.359375 L 14.609375 -6.5 L 18.625 -6.5 L 18.625 0 L 1.9375 0 L 1.9375 -6.5 L 5.96875 -6.5 L 5.96875 -23.65625 L 1.609375 -23.65625 L 1.609375 -30.21875 L 14.609375 -30.21875 L 14.609375 -25.59375 C 16.617188 -29.082031 19.859375 -30.828125 24.328125 -30.828125 C 27.179688 -30.828125 29.660156 -29.976562 31.765625 -28.28125 C 33.867188 -26.582031 34.921875 -23.945312 34.921875 -20.375 L 34.921875 -6.5 L 38.9375 -6.5 Z M 38.9375 0 "/></g></g></g></g></g></svg>